<svg width="current" height="current" id="strikeThrough" viewBox="0 0 16 16" fill="none" xmlns="http://www.w3.org/2000/svg">
<path d="M4.5667 4.71988C4.5667 2.91321 6.30004 1.99988 8.16004 1.99988C9.25337 1.99988 10.16 2.32654 10.76 2.85321C11.2734 3.28654 11.7334 4.00654 11.7334 5.01321H9.7267C9.7267 4.80654 9.69337 4.61988 9.6267 4.44654C9.43337 3.87321 8.8267 3.59321 8.1267 3.59321C6.8867 3.59321 6.5667 4.27321 6.5667 4.72654C6.5667 5.04654 6.73337 5.31321 7.06004 5.53321C7.31337 5.69988 7.57337 5.85321 8.00004 5.99988H4.9267C4.7867 5.77321 4.5667 5.40654 4.5667 4.71988ZM14 7.99988V6.66654H2.00004V7.99988H8.41337C9.18004 8.29988 9.72004 8.49988 9.72004 9.31321C9.72004 9.97988 9.18004 10.4265 8.20004 10.4265C7.17337 10.4265 6.2467 10.0665 6.2467 8.75321H4.2667C4.2667 9.11988 4.32004 9.50655 4.4267 9.80654C4.9667 11.3332 6.62004 12.0065 8.2067 12.0065C9.72004 12.0065 11.74 11.4132 11.74 9.30654C11.74 9.10654 11.7334 8.53321 11.42 8.01321H14V7.99988Z" fill="#404040"/>
</svg>
