<svg width="current" height="current" viewBox="0 0 16 17" fill="none" xmlns="http://www.w3.org/2000/svg">
<path d="M4.6 11H5.625C5.775 11 5.925 10.875 5.975 10.725L6.775 8.5H10.125L11 10.725C11.05 10.875 11.2 11 11.35 11H12.375C12.55 11 12.675 10.825 12.6 10.675L9.6 3.25C9.55 3.1 9.425 3 9.275 3H7.5C7.35 3 7.2 3.1 7.15 3.25L4.4 10.675C4.325 10.825 4.45 11 4.6 11ZM8.275 4.5H8.5L9.575 7H7.325L8.275 4.5Z" fill="#404040"/>
<path d="M14.125 12.5H2.875C2.675 12.5 2.5 12.675 2.5 12.875V13.625C2.5 13.825 2.675 14 2.875 14H14.125C14.325 14 14.5 13.825 14.5 13.625V12.875C14.5 12.675 14.325 12.5 14.125 12.5Z" fill="#404040"/>
</svg>
