<svg width="current" height="current" viewBox="0 0 16 17" fill="none" xmlns="http://www.w3.org/2000/svg">
<path d="M5.03992 4.09561L5.91198 4.93143L4.3521 6.41733H10.3153C11.2925 6.41733 12.2297 6.78424 12.9208 7.43735C13.6118 8.09046 14 8.97627 14 9.89991C14 10.8235 13.6118 11.7094 12.9208 12.3625C12.2297 13.0156 11.2925 13.3825 10.3153 13.3825H9.087V12.2216H10.3153C10.9668 12.2216 11.5916 11.977 12.0523 11.5416C12.5129 11.1062 12.7718 10.5157 12.7718 9.89991C12.7718 9.28415 12.5129 8.69361 12.0523 8.25821C11.5916 7.8228 10.9668 7.57819 10.3153 7.57819H4.3521L5.91198 9.03507L5.04606 9.85347L2 6.99776L5.03992 4.09561Z" fill="#404040"/>
</svg>
