<svg width="current" height="current" viewBox="0 0 16 17" fill="none" xmlns="http://www.w3.org/2000/svg">
<path d="M7.97307 5.3077L9.13077 8.00001H6.70769L7.75769 5.3077H7.97307ZM13.9231 3.15386V12.8462C13.9231 13.4385 13.4385 13.9231 12.8462 13.9231H3.15384C2.56153 13.9231 2.07692 13.4385 2.07692 12.8462V3.15386C2.07692 2.56155 2.56153 2.07693 3.15384 2.07693H12.8462C13.4385 2.07693 13.9231 2.56155 13.9231 3.15386ZM12.4423 11.9577L9.21154 3.96155C9.13077 3.80001 8.99615 3.69232 8.80769 3.69232H6.89615C6.73461 3.69232 6.57307 3.80001 6.51923 3.96155L3.55769 11.9577C3.50384 12.1192 3.61153 12.3077 3.8 12.3077H4.90384C5.06538 12.3077 5.22692 12.1731 5.28077 12.0116L6.1423 9.6154H9.75L10.6923 12.0116C10.7462 12.1731 10.9077 12.3077 11.0692 12.3077H12.1731C12.3615 12.3077 12.4962 12.1192 12.4423 11.9577Z" fill="#404040"/>
</svg>
