<svg width="current" id="bold" height="current" viewBox="0 0 16 16" fill="none" xmlns="http://www.w3.org/2000/svg">
<path d="M10.4 7.19341C11.0467 6.74675 11.5 6.01341 11.5 5.33341C11.5 3.82675 10.3334 2.66675 8.83338 2.66675H4.66671V12.0001H9.36004C10.7534 12.0001 11.8334 10.8667 11.8334 9.47341C11.8334 8.46008 11.26 7.59341 10.4 7.19341ZM6.66671 4.33341H8.66671C9.22004 4.33341 9.66671 4.78008 9.66671 5.33341C9.66671 5.88675 9.22004 6.33341 8.66671 6.33341H6.66671V4.33341ZM9.00004 10.3334H6.66671V8.33341H9.00004C9.55338 8.33341 10 8.78008 10 9.33341C10 9.88675 9.55338 10.3334 9.00004 10.3334Z" fill="#404040"/>
</svg>
