<svg width="current" height="current" viewBox="0 0 16 17" fill="none" xmlns="http://www.w3.org/2000/svg">
<path d="M10.9601 4.09561L10.088 4.93143L11.6479 6.41733H5.68475C4.70749 6.41733 3.77026 6.78424 3.07924 7.43735C2.38821 8.09046 2 8.97627 2 9.89991C2 10.8235 2.38821 11.7094 3.07924 12.3625C3.77026 13.0156 4.70749 13.3825 5.68475 13.3825H6.913V12.2216H5.68475C5.03324 12.2216 4.40842 11.977 3.94774 11.5416C3.48706 11.1062 3.22825 10.5157 3.22825 9.89991C3.22825 9.28415 3.48706 8.69361 3.94774 8.25821C4.40842 7.8228 5.03324 7.57819 5.68475 7.57819H11.6479L10.088 9.03507L10.9539 9.85347L14 6.99776L10.9601 4.09561Z" fill="#404040"/>
</svg>
